<?xml version="1.0" encoding="UTF-8" standalone="no"?>
<!-- Created with Inkscape (http://www.inkscape.org/) -->

<svg
   width="32"
   height="32"
   viewBox="0 0 8.4666666 8.4666666"
   version="1.1"
   id="svg1"
   xmlns="http://www.w3.org/2000/svg"
   xmlns:svg="http://www.w3.org/2000/svg">
  <defs
     id="defs1" />
  <g
     id="layer1">
    <path
       id="path1"
       style="fill:#ececec;stroke:#ececec;stroke-width:0.263;stroke-linecap:round;stroke-miterlimit:0;paint-order:markers stroke fill"
       d="M 7.2651896 0.11110433 A 1.107357 0.79912359 0 0 0 6.277653 0.55293783 A 1.107357 0.79912359 0 0 0 5.2921834 0.11782227 A 1.107357 0.79912359 0 0 0 4.203361 0.78134766 A 1.107357 0.79912359 0 0 0 3.481958 0.5880778 A 1.107357 0.79912359 0 0 0 2.3853841 1.2769246 A 1.107357 0.79912359 0 0 0 1.8350301 1.170988 A 1.107357 0.79912359 0 0 0 0.72760417 1.9699056 A 1.107357 0.79912359 0 0 0 1.760616 2.7657227 A 1.107357 0.79912359 0 0 0 1.3203328 3.4034098 A 1.107357 0.79912359 0 0 0 2.427242 4.2023275 A 1.107357 0.79912359 0 0 0 3.4463013 3.7150187 A 1.107357 0.79912359 0 0 0 4.2891439 3.9982056 A 1.107357 0.79912359 0 0 0 4.6436442 3.9542806 A 1.107357 0.79912359 0 0 0 5.4885539 4.238501 A 1.107357 0.79912359 0 0 0 6.4673055 3.8095866 A 1.107357 0.79912359 0 0 0 6.7949341 3.8462769 A 1.107357 0.79912359 0 0 0 7.306014 3.7548096 A 1.107357 0.79912359 0 0 0 8.3994873 2.9558919 A 1.107357 0.79912359 0 0 0 8.2015666 2.5001058 A 1.107357 0.79912359 0 0 0 8.2733968 2.2210531 A 1.107357 0.79912359 0 0 0 7.8444824 1.5900838 A 1.107357 0.79912359 0 0 0 8.3726156 0.91053874 A 1.107357 0.79912359 0 0 0 7.2651896 0.11110433 z M 5.7918945 2.4024373 A 1.107357 0.79912359 0 0 0 6.0564779 2.4267253 A 1.107357 0.79912359 0 0 0 6.0952352 2.425175 A 1.107357 0.79912359 0 0 0 6.0962687 2.4287923 A 1.107357 0.79912359 0 0 0 5.8166992 2.6763224 A 1.107357 0.79912359 0 0 0 5.5071574 2.6406657 A 1.107357 0.79912359 0 0 0 5.7918945 2.4024373 z " />
    <path
       style="fill:#ececec;stroke:#ececec;stroke-width:0.263;stroke-linecap:round;stroke-miterlimit:0;paint-order:markers stroke fill"
       d="M 7.7857471,4.429428 7.2377768,5.2285516"
       id="path5" />
    <path
       style="fill:#ececec;stroke:#ececec;stroke-width:0.263;stroke-linecap:round;stroke-miterlimit:0;paint-order:markers stroke fill"
       d="M 6.2263183,4.665679 5.678348,5.4648026"
       id="path5-1" />
    <path
       style="fill:#ececec;stroke:#ececec;stroke-width:0.263;stroke-linecap:round;stroke-miterlimit:0;paint-order:markers stroke fill"
       d="M 3.67987,4.4507882 3.1318997,5.2499118"
       id="path5-0" />
    <path
       style="fill:#ececec;stroke:#ececec;stroke-width:0.263;stroke-linecap:round;stroke-miterlimit:0;paint-order:markers stroke fill"
       d="M 2.680631,4.8255037 2.1326607,5.6246273"
       id="path5-9" />
    <path
       style="fill:#ececec;stroke:#ececec;stroke-width:0.263;stroke-linecap:round;stroke-miterlimit:0;paint-order:markers stroke fill"
       d="M 1.5497731,4.8026716 1.0018028,5.6017952"
       id="path5-3" />
    <path
       style="fill:#ececec;stroke:#ececec;stroke-width:0.263;stroke-linecap:round;stroke-miterlimit:0;paint-order:markers stroke fill"
       d="M 1.3039935,6.3324225 0.75602324,7.1315461"
       id="path5-37" />
    <path
       style="fill:#ececec;stroke:#ececec;stroke-width:0.263;stroke-linecap:round;stroke-miterlimit:0;paint-order:markers stroke fill"
       d="M 2.7934539,5.9926239 2.2454836,6.7917475"
       id="path5-97" />
    <path
       style="fill:#ececec;stroke:#ececec;stroke-width:0.263;stroke-linecap:round;stroke-miterlimit:0;paint-order:markers stroke fill"
       d="M 6.7689229,5.7468444 6.2209526,6.545968"
       id="path5-5" />
    <path
       style="fill:#ececec;stroke:#ececec;stroke-width:0.263;stroke-linecap:round;stroke-miterlimit:0;paint-order:markers stroke fill"
       d="M 7.417616,6.8656174 6.8696457,7.664741"
       id="path5-4" />
    <path
       style="fill:#ececec;stroke:#ececec;stroke-width:0.263;stroke-linecap:round;stroke-miterlimit:0;paint-order:markers stroke fill"
       d="M 7.9830449,5.5037479 7.4350746,6.3028715"
       id="path5-06" />
    <path
       style="fill:none;stroke:#ececec;stroke-width:0.263;stroke-linecap:round;stroke-linejoin:round;stroke-miterlimit:0;paint-order:markers stroke fill"
       id="path6"
       d="M 2.2832107,8.1967254 3.4176078,6.2860155 4.5520049,4.3753054 5.6395297,6.3130771 6.7270546,8.2508489 4.5051327,8.2237872 Z"
       transform="rotate(119.79732,4.5821388,6.8087655)" />
    <circle
       style="fill:#ececec;fill-opacity:1;stroke:#ececec;stroke-width:0.263;stroke-linecap:round;stroke-linejoin:round;stroke-miterlimit:0;stroke-opacity:1;paint-order:markers stroke fill"
       id="path7"
       cx="4.4979243"
       cy="7.3519373"
       r="0.22832103" />
    <path
       style="fill:#ececec;fill-opacity:1;stroke:#ececec;stroke-width:0.263;stroke-linecap:round;stroke-linejoin:round;stroke-miterlimit:0;stroke-opacity:1;paint-order:markers stroke fill"
       d="M 4.4979243,4.8632379 4.4750934,6.6898061"
       id="path8" />
  </g>
</svg>
