<?xml version="1.0" encoding="UTF-8" standalone="no"?>
<!-- Created with Inkscape (http://www.inkscape.org/) -->

<svg
   width="32"
   height="32"
   viewBox="0 0 8.4666666 8.4666666"
   version="1.1"
   id="svg1"
   inkscape:version="1.3 (0e150ed6c4, 2023-07-21)"
   sodipodi:docname="Fuel.svg"
   xmlns:inkscape="http://www.inkscape.org/namespaces/inkscape"
   xmlns:sodipodi="http://sodipodi.sourceforge.net/DTD/sodipodi-0.dtd"
   xmlns="http://www.w3.org/2000/svg"
   xmlns:svg="http://www.w3.org/2000/svg">
  <sodipodi:namedview
     id="namedview1"
     pagecolor="#ffffff"
     bordercolor="#000000"
     borderopacity="0.25"
     inkscape:showpageshadow="2"
     inkscape:pageopacity="0.0"
     inkscape:pagecheckerboard="0"
     inkscape:deskcolor="#d1d1d1"
     inkscape:document-units="px"
     showguides="false"
     inkscape:zoom="11.588215"
     inkscape:cx="6.2995032"
     inkscape:cy="10.225906"
     inkscape:window-width="1920"
     inkscape:window-height="1009"
     inkscape:window-x="-8"
     inkscape:window-y="-8"
     inkscape:window-maximized="1"
     inkscape:current-layer="layer1" />
  <defs
     id="defs1" />
  <g
     inkscape:label="Warstwa 1"
     inkscape:groupmode="layer"
     id="layer1">
    <g
       id="g4"
       transform="matrix(0.73402509,0,0,0.63842963,1.1904324,1.5561524)">
      <path
         id="rect1"
         style="fill:#aa0000;stroke:#aa0000;stroke-width:0.230589;stroke-linecap:round"
         d="m 2.8664917,0.10697021 c -0.1960591,0 -0.3539836,0.15792449 -0.3539836,0.35398356 V 7.5401082 H 0.99942219 c -0.0411092,0 -0.0738973,0.032788 -0.0738973,0.073897 V 8.426359 c 0,0.041109 0.0327881,0.074414 0.0738973,0.074414 H 7.4842976 c 0.041109,0 0.073897,-0.033305 0.073897,-0.074414 V 7.6140055 c 0,-0.041109 -0.032788,-0.073897 -0.073897,-0.073897 H 5.9861979 V 0.46095377 c 0,-0.19605907 -0.1579245,-0.35398356 -0.3539836,-0.35398356 z" />
      <rect
         style="fill:#1a1a1a;stroke:#aa0000;stroke-width:0.263;stroke-linecap:round;stroke-linejoin:round;stroke-dasharray:none;paint-order:markers stroke fill"
         id="rect3"
         width="2.7398524"
         height="1.7124077"
         x="2.854013"
         y="0.91328412"
         ry="0.3538976" />
      <path
         style="fill:none;stroke:#aa0000;stroke-width:0.263;stroke-linecap:round;stroke-linejoin:round;stroke-dasharray:none;paint-order:markers stroke fill"
         d="M 6.1418358,3.8586253 C 6.7076728,4.4110624 7.848795,4.7362991 7.6487547,5.7080256 7.5745096,6.517437 6.8809903,6.8943743 6.7126382,5.6395295 6.7300563,4.9321262 7.5482777,4.5345801 7.2377767,3.4019834"
         id="path3"
         sodipodi:nodetypes="cccc" />
      <path
         id="path4"
         style="fill:none;stroke:#aa0000;stroke-width:0.395288;stroke-linecap:round;stroke-linejoin:round;stroke-dasharray:none;paint-order:markers stroke fill"
         d="M 6.3474161,2.6029419 7.9457682,3.8586792 Z" />
    </g>
  </g>
</svg>
